# xmcd
#
# Track frame offsets:
#	150
#	12415
#	23397
#	34532
#	45625
#	56815
#	70345
#	83497
#	94310
#	107747
#	120822
#	133982
#	145722
#	164707
#
# Disc length: 2421 seconds
#
# Revision: 0
# Processed by: cddbd v1.5.2PL0 Copyright (c) Steve Scherf et al.
# Submitted via: audiograbber 1.83.01
#
DISCID=b409730e
DTITLE=Αλίκη Βουγιουκλάκη - Τα τραγούδια της Αλικης Γιά πάντα
DYEAR=1900
DGENRE=
TTITLE0=Αλίκη τσα τσα
TTITLE1=Ρίκο ρίκο ρίκοκο
TTITLE2=Τα νιάτα
TTITLE3=Σήμερα
TTITLE4=Ξανθομαλλού
TTITLE5=Ηλιος πάνω ήλιος κάτω
TTITLE6=Ασ'το πείσμα σου
TTITLE7=Αγάπη μου αγάπη μου
TTITLE8=Οσα δώσεις στη αγάπη
TTITLE9=Στον ήλιο του μεσημεριού
TTITLE10=Αλητάκι μπατηράκι
TTITLE11=Το χρήμα
TTITLE12=Μαμά
TTITLE13=Cabaret
EXTD=
EXTT0=
EXTT1=
EXTT2=
EXTT3=
EXTT4=
EXTT5=
EXTT6=
EXTT7=
EXTT8=
EXTT9=
EXTT10=
EXTT11=
EXTT12=
EXTT13=
PLAYORDER=
